<?xml version="1.0" standalone="no"?>
<!DOCTYPE svg PUBLIC "-//W3C//DTD SVG 20010904//EN"
 "http://www.w3.org/TR/2001/REC-SVG-20010904/DTD/svg10.dtd">
<svg version="1.0" xmlns="http://www.w3.org/2000/svg"
 width="208.000000pt" height="130.000000pt" viewBox="0 0 208.000000 130.000000"
 preserveAspectRatio="xMidYMid meet">

<g transform="translate(0.000000,130.000000) scale(0.100000,-0.100000)"
fill="hsla(240,13%,90%,1.0)" stroke="none">
<path d="M1510 1289 c-68 -27 -178 -31 -437 -14 -345 23 -504 11 -682 -50
-223 -76 -353 -207 -384 -389 -9 -57 -9 -68 4 -82 18 -18 107 -46 113 -36 2 4
9 43 16 87 22 154 104 276 225 336 129 63 311 72 670 33 168 -18 399 -15 454
6 34 13 61 57 61 100 0 22 -4 23 -40 9z"/>
<path d="M662 1088 c-134 -199 -311 -537 -377 -723 -33 -91 -65 -215 -65 -251
0 -14 77 -104 89 -104 3 0 14 37 24 83 50 223 241 602 439 867 37 51 68 98 68
105 0 32 -75 95 -114 95 -9 0 -37 -33 -64 -72z"/>
<path d="M1357 1032 c-20 -55 -86 -202 -146 -328 -114 -240 -157 -357 -168
-456 -5 -48 -3 -62 12 -78 17 -18 84 -44 93 -36 2 2 8 36 14 75 6 39 14 71 18
71 4 0 13 -13 19 -28 52 -126 209 -155 333 -61 l53 39 30 -35 c38 -45 90 -65
162 -65 102 1 167 46 191 132 6 22 8 85 5 150 -8 167 2 202 102 343 12 18 -17
50 -66 75 l-36 19 -40 -42 c-42 -43 -136 -171 -230 -312 -131 -195 -176 -241
-262 -265 -53 -15 -74 -12 -111 13 -49 32 -74 81 -73 142 1 87 41 152 154 246
60 50 63 34 9 -46 -51 -78 -52 -107 -1 -155 50 -47 81 -57 89 -27 3 12 21 51
40 87 94 174 97 187 53 231 -47 47 -116 37 -208 -30 -24 -17 -43 -29 -43 -27
0 3 41 88 91 189 66 133 89 190 85 205 -9 28 -58 62 -99 69 l-33 5 -37 -100z
m469 -534 c0 -35 2 -107 5 -160 4 -86 2 -99 -17 -125 -32 -43 -83 -44 -118 -3
-42 51 -32 107 23 130 17 7 41 10 53 7 36 -9 43 -7 40 11 -7 38 -25 72 -43 77
-16 5 -17 10 -7 28 16 32 58 97 61 97 2 0 3 -28 3 -62z"/>
<path d="M929 808 c-40 -40 -143 -180 -232 -313 -36 -55 -76 -112 -88 -127
-15 -18 -24 -46 -27 -81 -4 -51 -2 -57 33 -96 40 -44 82 -61 155 -61 95 0 152
34 184 112 12 28 15 69 13 180 -2 168 5 202 68 287 l44 60 -41 36 c-23 19 -49
35 -59 35 -10 0 -32 -15 -50 -32z m-104 -556 c-17 -97 -142 -93 -161 5 -5 27
-1 37 25 64 32 32 56 35 105 14 16 -7 18 -5 11 26 -10 47 -23 69 -45 77 -18 7
-17 11 18 64 l37 57 8 -137 c4 -75 5 -152 2 -170z"/>
</g>
</svg>
